# xmcd
#
# Track frame offsets:
#  150
#  14760
#  30825
#  44419
#  62024
#  71805
#  88167
#  97452
#  110287
#  121738
#
# Disc length: 1865 seconds
#
# Revision: 0
# Processed by: cddbd v1.5.1PL0 Copyright (c) Steve Scherf et al.
# Submitted via: Collectorz.com Music Collector 6.9
#
DISCID=8807470a
DTITLE=howard letovsky - A Little Bit Country… A Little Bit Weird
DYEAR=1995
DGENRE=
TTITLE0=Traffic Violator School
TTITLE1=A Real Man Like Mom
TTITLE2=Dream Away
TTITLE3=The Cost Of Love
TTITLE4=Two Sets Of Balls
TTITLE5=Carry Me Home
TTITLE6=Ode To Ed Mcmahon
TTITLE7=Tv Preacher
TTITLE8=Calypso Maladies
TTITLE9=Piano Steven
EXTD=
EXTT0=
EXTT1=
EXTT2=
EXTT3=
EXTT4=
EXTT5=
EXTT6=
EXTT7=
EXTT8=
EXTT9=
PLAYORDER=
